# xmcd
#
# Track frame offsets: 
#        150
#        12967
#        26785
#        40407
#        55870
#        71332
#        80650
#        96111
#        112749
#        125352
#        144924
#        165907
#        180300
#        197760
#        205428
#        223092
#        240564
#        260412
#        277692
#        289656
#
# Disc length: 4099 seconds
#
# Revision: 1
# Processed by: cddbd v1.5.2PL0 Copyright (c) Steve Scherf et al.
# Submitted via: ExactAudioCopy v0.99pb5
#
DISCID=12100114
DTITLE=James Patterson - Jack and Jill [Disc 1]
DYEAR=1997
DGENRE=Audiobook
TTITLE0=1a
TTITLE1=1b
TTITLE2=1c
TTITLE3=1d
TTITLE4=1e
TTITLE5=1f
TTITLE6=1g
TTITLE7=1h
TTITLE8=1i
TTITLE9=1j
TTITLE10=1k
TTITLE11=1l
TTITLE12=1m
TTITLE13=1n
TTITLE14=1o
TTITLE15=1p
TTITLE16=1q
TTITLE17=1r
TTITLE18=1s
TTITLE19=1t
EXTD=
EXTT0=
EXTT1=
EXTT2=
EXTT3=
EXTT4=
EXTT5=
EXTT6=
EXTT7=
EXTT8=
EXTT9=
EXTT10=
EXTT11=
EXTT12=
EXTT13=
EXTT14=
EXTT15=
EXTT16=
EXTT17=
EXTT18=
EXTT19=
PLAYORDER=
